inDegrees=yes
name=IK_Results.mot
DataType=double
version=3
OpenSimVersion=4.4-2022-08-12-dcf8e2cb1
endheader
time	TH_x	TH_y	TH_z	TH_transx	TH_transy	TH_transz	SC_y	SC_z	SC_x	AC_y	AC_z	AC_x	GH_y	GH_z	GH_yy	EL_x	PS_y
6.119999999999914	-344.1297410920835	-68.62768155169368	-179.6467299805753	0	0	0	-42.38474459031545	10.39616845291553	20.3515877653919	50.51279320608685	-7.636912274308049	7.296453650631805	46.39550362710318	-3.126518470234389	-33.78437052639608	6.69199350773292	89.86570985952024
6.129999999999914	-340.2343837083179	-74.01875715631407	-174.3516382286264	0	0	0	-41.38217266412175	11.26675236013897	20.55282852757773	51.13779354211279	-7.737404298100078	7.003070370760573	47.48516835463973	-2.561897384983708	-31.92676390543445	11.33893357435524	89.52798871945527
6.139999999999914	-330.1506998589916	-78.4022152982626	-162.953126910493	0	0	0	-40.21677414642926	10.7590139774784	21.06626758756796	51.37730773244571	-8.411250762660995	8.004710466417764	48.20947663427315	-1.426989210127463	-30.44554852499316	9.268625037336587	89.66972584283643
6.149999999999913	-323.3252343877957	-76.12008807281036	-158.1855034363967	0	0	0	-39.38082182992748	9.084235682307879	22.90731742557682	50.8582893481007	-8.729922067269342	10.66747876304255	48.18803376094216	1.072388702295671	-30.40617531885486	5.764166421976544	89.95719894263158
6.159999999999913	-336.4564799537482	-74.28769709160758	-172.7671362163204	0	0	0	-38.90392982388975	9.905989964070706	22.47825360768581	51.00155565660855	-9.498785635434924	10.06746408122069	46.85619705244634	0.8446887892598354	-31.40925322204893	7.418605266077868	89.81595749261854
6.169999999999913	-334.4319899229838	-69.68902271887234	-172.4128561734858	0	0	0	-37.19797106666982	7.452921226495768	24.1087580464089	50.56719455262289	-11.22025362236822	13.52061120694525	45.91211137900149	3.575635261915548	-32.21341778455415	7.517786588848554	89.79484967812344
6.179999999999913	-334.6378215948164	-71.03428588638852	-172.3254337726493	0	0	0	-32.56128783392378	8.645339635782952	27.24892191392677	54.19953327782034	-9.788194063093131	14.51039040043539	51.01234729857156	6.391064433089476	-27.11032419381113	5.129193620888636	89.96673109974105
6.189999999999912	-336.5338277554677	-73.79468868685271	-173.3205095846386	0	0	0	-32.83154686074845	7.9647119149182	26.39468730149997	52.91459562596668	-11.6239233949261	14.5010050236511	49.37678427226551	6.650501710451606	-28.82605064306352	4.984545370873568	89.99127151093079
6.199999999999912	-321.9549632431763	-79.37350309420499	-159.4896233067714	0	0	0	-31.40293307249287	7.986694191325228	27.64346813057098	52.84956352275196	-12.06432384057489	15.03101189132502	50.29882259661089	9.36917752225234	-27.62224469072274	1.040000412002938	90.68369732207499
6.209999999999912	-318.818679272548	-78.89863293332364	-156.336064220961	0	0	0	-28.4684371905999	8.34728169251942	29.12042293983928	54.65467172293916	-12.15014042039769	14.97669778699539	52.87099637829535	11.36038533569033	-25.34049008868179	1.047890125020593	90.63632629420479
6.219999999999912	-299.3718511116564	-83.92603562995745	-135.6842307737534	0	0	0	-27.61659665692105	8.51088850506425	28.98462327378612	53.1323604191767	-14.58800517496594	14.35501147197657	51.50512773444829	14.15415010848808	-28.46938541328059	1.127020842366623	90.39960654519555
6.229999999999912	-283.0961847303331	-85.74405697211927	-116.7600325688251	0	0	0	-25.32167406667899	9.386453457171928	29.18210352014719	54.72522728810095	-15.39345949326384	13.25326319492162	54.38112283161823	18.831801474846	-26.4362075972793	5.328385252061008	89.9712378576299
6.239999999999911	-271.1282235277512	-87.28076419112067	-104.2747496319547	0	0	0	-30.14189614301196	12.74563192816077	16.75472481574148	57.17104702043369	-12.32860841899933	6.37254214805637	68.27052170041954	40.03029538055298	-41.15244287129455	4.025187927752718	90.07130352466365
6.249999999999911	-271.4349930453316	-88.1541267477398	-103.7933472004995	0	0	0	-30.27512515768827	13.19350726358238	18.94358470098994	56.98125673029401	-10.20978635438863	6.476298551803137	69.2782663041334	39.91812960097219	-37.02134653602582	1.070867260773259	90.51217577074969
6.259999999999911	-233.1435426800361	-87.16292793676409	-64.71126960603449	0	0	0	-31.6111359775624	13.22812758677865	19.87485725107881	56.58035652504713	-10.81692442709647	6.461789360239458	68.17447970004559	43.90912299451155	-35.77941542305111	6.970710094935244	89.85002451514204
6.269999999999911	-278.1029894880109	-86.68718101757499	-109.3157425776675	0	0	0	-31.26207602413859	13.03882866014395	19.32966883767051	56.44898433622166	-12.45154209383649	8.440131351451617	68.43321161108983	46.14837935126717	-42.56081209237788	1.137573701173998	90.39359665556137
6.279999999999911	-278.0982428613485	-86.70889691849358	-109.3213120570225	0	0	0	-31.26221828501917	13.0514537917731	19.33458746219749	56.45118610812619	-12.43747973116515	8.428513594654618	68.43440455516037	46.14801681095882	-42.55245195720075	1.143428292174562	90.3934346417026
6.28999999999991	-227.9873195137022	-88.14351600234481	-60.54171515819882	0	0	0	-31.17581273643864	13.02436297763441	19.70836430053661	55.4495348062112	-11.86521129210188	6.686706371498087	65.14581828630782	51.67264961717285	-46.40957471207476	17.81691541786746	89.05623551530138
6.29999999999991	-228.6479755072108	-88.3666959991006	-59.95586074957673	0	0	0	-31.67314416250807	11.8390451914681	19.55504317880523	54.50898529171422	-12.65564391544857	7.62498568481351	64.17234987869304	52.51833348923026	-47.95771220327708	22.77630295432674	88.70771831652748
6.30999999999991	-228.7015595677139	-88.47888969643292	-59.90167930686752	0	0	0	-31.67027955741339	11.99275102201148	19.70503868085083	54.52681386771933	-12.49834019122836	7.594850470901188	64.22052437949189	52.66596449117574	-47.87154391224102	22.97798350144085	88.68176266332229
6.31999999999991	-260.0988394539195	-87.21215942001142	-92.76816703546955	0	0	0	-31.75698952791828	14.40512099375035	23.37090388961155	55.83983429025611	-10.87094036187141	8.686305853255403	65.64551195766869	57.06716727935252	-52.88374178618039	15.04313385040212	89.25936608997485
6.329999999999909	-235.9688878311043	-87.63136495292218	-68.91987807901687	0	0	0	-31.01549880756693	14.08018860157877	24.23127114444631	56.12605833636951	-8.786756016234076	6.755987710840612	66.12850329472447	58.52464694224525	-49.9939660303856	9.819526559154513	89.63706071379147
6.339999999999909	-235.5344089198538	-86.75485159633217	-69.15964865281902	0	0	0	-30.79218589151836	13.83308344691331	25.17351781812044	56.05984323242694	-8.271634319309397	7.217741933235005	66.22935609452738	59.70693527745703	-48.73347722814773	15.67976759917496	89.20535385446922
6.349999999999909	-224.1133038009655	-86.77904868186096	-56.80945062429539	0	0	0	-31.12730675206594	13.7807962131873	25.79901551010117	54.92328606489589	-8.222539093622272	7.669027573837704	64.73080546967894	61.56847452176069	-50.01692482622234	16.88849350829348	89.11789380865434
